<?xml version="1.0" encoding="UTF-8" standalone="no"?>
<!-- Created with Inkscape (http://www.inkscape.org/) -->

<svg
   xmlns:osb="http://www.openswatchbook.org/uri/2009/osb"
   xmlns:dc="http://purl.org/dc/elements/1.1/"
   xmlns:cc="http://creativecommons.org/ns#"
   xmlns:rdf="http://www.w3.org/1999/02/22-rdf-syntax-ns#"
   xmlns:svg="http://www.w3.org/2000/svg"
   xmlns="http://www.w3.org/2000/svg"
   xmlns:sodipodi="http://sodipodi.sourceforge.net/DTD/sodipodi-0.dtd"
   xmlns:inkscape="http://www.inkscape.org/namespaces/inkscape"
   width="740"
   height="740"
   id="svg3218"
   version="1.1"
   inkscape:version="0.48.5 r10040"
   sodipodi:docname="Room Quest notification Icon 1.svg"
   inkscape:export-filename="C:\Users\Michael\AndroidStudioProjects\RoomQuest\app\src\main\res\drawable-hdpi\ic_launcher.png"
   inkscape:export-xdpi="9"
   inkscape:export-ydpi="9">
  <sodipodi:namedview
     id="base"
     pagecolor="#000000"
     bordercolor="#666666"
     borderopacity="1.0"
     inkscape:pageopacity="1"
     inkscape:pageshadow="2"
     inkscape:zoom="0.61992923"
     inkscape:cx="194.87311"
     inkscape:cy="212.43905"
     inkscape:document-units="px"
     inkscape:current-layer="layer4"
     showgrid="false"
     fit-margin-top="0"
     fit-margin-left="0"
     fit-margin-right="0"
     fit-margin-bottom="0"
     inkscape:window-width="1440"
     inkscape:window-height="878"
     inkscape:window-x="-8"
     inkscape:window-y="-8"
     inkscape:window-maximized="1"
     inkscape:snap-global="true"
     showguides="false"
     inkscape:guide-bbox="true"
     inkscape:object-nodes="true"
     inkscape:snap-midpoints="true"
     inkscape:object-paths="true"
     inkscape:snap-grids="false"
     inkscape:snap-to-guides="true"
     inkscape:snap-nodes="true"
     inkscape:snap-object-midpoints="false"
     inkscape:snap-intersection-paths="true">
    <inkscape:grid
       originy="-160.00002px"
       originx="-160px"
       snapvisiblegridlinesonly="true"
       enabled="true"
       visible="true"
       empspacing="5"
       id="grid3226"
       type="xygrid" />
    <sodipodi:guide
       id="guide6402"
       position="-1087.7778,277.77776"
       orientation="-0.11795175,0.99301933" />
    <sodipodi:guide
       id="guide6404"
       position="-1087.7778,277.77776"
       orientation="-0.19177986,0.98143797" />
    <sodipodi:guide
       id="guide6406"
       position="360,-1666.6667"
       orientation="-0.99975179,0.022279051" />
    <sodipodi:guide
       id="guide6408"
       position="360,-1666.6667"
       orientation="-0.99776816,-0.066773431" />
    <sodipodi:guide
       orientation="0.99961442,-0.027767067"
       position="460,720"
       id="guide3981" />
  </sodipodi:namedview>
  <defs
     id="defs3220">
    <linearGradient
       osb:paint="gradient"
       id="linearGradient4632">
      <stop
         id="stop4634"
         offset="0"
         style="stop-color:#000000;stop-opacity:1;" />
      <stop
         id="stop4636"
         offset="1"
         style="stop-color:#000000;stop-opacity:0;" />
    </linearGradient>
  </defs>
  <metadata
     id="metadata3223">
    <rdf:RDF>
      <cc:Work
         rdf:about="">
        <dc:format>image/svg+xml</dc:format>
        <dc:type
           rdf:resource="http://purl.org/dc/dcmitype/StillImage" />
        <dc:title />
        <dc:creator>
          <cc:Agent>
            <dc:title>Michael Monaghan</dc:title>
          </cc:Agent>
        </dc:creator>
      </cc:Work>
    </rdf:RDF>
  </metadata>
  <g
     style="display:inline"
     transform="translate(-160,-152.36218)"
     id="layer1"
     inkscape:groupmode="layer"
     inkscape:label="Layer 1" />
  <g
     style="display:none"
     inkscape:label="Room Quest"
     id="layer3"
     inkscape:groupmode="layer"
     transform="translate(0,20)">
    <g
       id="flowRoot4513"
       style="font-size:72px;font-style:normal;font-variant:normal;font-weight:normal;font-stretch:normal;line-height:125%;letter-spacing:0px;word-spacing:0px;fill:#ffffff;fill-opacity:1;stroke:none;display:inline;font-family:Impact;-inkscape-font-specification:Impact"
       transform="translate(27.15625,-272.9521)">
      <path
         id="path6242"
         style="text-align:center;text-anchor:middle;fill:#ffffff;fill-opacity:1"
         d="m 193.47978,408.05927 c 0,0 10.3983,-2.40063 10.3983,-2.40063 7.02363,-1.62146 11.83699,-2.37057 14.39059,-2.23415 2.56197,0.13706 4.70966,1.50079 6.43731,4.09175 1.72836,2.59228 2.72526,7.11786 2.98928,13.5555 0.24004,5.85436 -0.16394,9.89315 -1.2089,12.12823 -1.04193,2.22852 -3.19946,3.87578 -6.46237,4.94264 3.01078,0.34216 5.06709,1.20527 6.16076,2.58886 1.09412,1.3843 1.79445,2.71664 2.10049,3.99603 0.30582,1.2788 0.58121,4.90563 0.82555,10.8633 0,0 0.79169,19.30624 0.79169,19.30624 0,0 -13.77438,2.41629 -13.77438,2.41629 0,0 -1.09974,-24.09699 -1.09974,-24.09699 -0.17884,-3.91807 -0.53022,-6.3017 -1.05374,-7.14322 -0.52352,-0.84137 -1.80348,-1.05834 -3.83527,-0.6519 0,0 1.54004,32.67251 1.54004,32.67251 0,0 -14.42647,2.53069 -14.42647,2.53069 0,0 -3.77314,-72.56515 -3.77314,-72.56515 m 15.34234,9.41633 c 0,0 0.77777,16.50074 0.77777,16.50074 1.66327,-0.34706 2.81749,-0.88785 3.46022,-1.62246 0.64358,-0.73552 0.89112,-2.73844 0.74168,-6.01327 0,0 -0.18692,-4.09572 -0.18692,-4.09572 -0.10806,-2.36727 -0.50422,-3.85039 -1.18811,-4.4464 -0.68359,-0.59558 -1.88616,-0.70289 -3.60464,-0.32289 0,0 0,0 0,0"
         inkscape:connector-curvature="0" />
      <path
         id="path6244"
         style="text-align:center;text-anchor:middle;fill:#ffffff;fill-opacity:1"
         d="m 267.80368,427.63072 c 0,0 0.4296,15.38426 0.4296,15.38426 0.15662,5.60987 0.0441,9.75237 -0.33653,12.43831 -0.37977,2.67961 -1.27811,5.27551 -2.69186,7.78561 -1.40872,2.50109 -3.2467,4.48248 -5.51091,5.9465 -2.25521,1.45817 -4.85681,2.44305 -7.80211,2.95736 -3.27416,0.57174 -6.05123,0.60678 -8.33821,0.1082 -2.28087,-0.49725 -4.07323,-1.53491 -5.38107,-3.11328 -1.30706,-1.57736 -2.27401,-3.5962 -2.90194,-6.05895 -0.62849,-2.46501 -1.04395,-6.26623 -1.24644,-11.41512 0,0 -0.61528,-15.64514 -0.61528,-15.64514 -0.22477,-5.71529 0.0843,-10.29682 0.93007,-13.73764 0.84878,-3.45295 2.50765,-6.44665 4.98367,-8.98141 2.48851,-2.54744 5.74394,-4.27041 9.77457,-5.16319 3.40203,-0.75343 6.35651,-0.75718 8.85589,-0.007 2.50612,0.75243 4.4653,2.02199 5.87307,3.80798 1.4085,1.78715 2.39278,3.73026 2.95189,5.82739 0.55863,2.09575 0.90048,5.38734 1.02559,9.86606 0,0 0,0 0,0 m -15.3963,-1.59076 c -0.10583,-3.20981 -0.30981,-5.2061 -0.61181,-5.98394 -0.30208,-0.77783 -0.90185,-1.0711 -1.79839,-0.8799 -0.89542,0.19106 -1.47744,0.73553 -1.74676,1.6329 -0.26908,0.89663 -0.34839,2.94642 -0.23829,6.14503 0,0 0.95984,27.8892 0.95984,27.8892 0.0994,2.88826 0.31112,4.7402 0.63529,5.55984 0.32409,0.81954 0.9154,1.15093 1.77478,0.9941 0.885,-0.16148 1.45624,-0.66732 1.71305,-1.51794 0.257,-0.85141 0.34198,-2.60101 0.25463,-5.2517 0,0 -0.94234,-28.58759 -0.94234,-28.58759"
         inkscape:connector-curvature="0" />
      <path
         id="path6246"
         style="text-align:center;text-anchor:middle;fill:#ffffff;fill-opacity:1"
         d="m 308.95599,419.21354 c 0,0 0.22822,15.87951 0.22822,15.87951 0.0832,5.78929 -0.0965,10.06504 -0.53809,12.83872 -0.44055,2.76696 -1.42768,5.44992 -2.95795,8.04666 -1.52466,2.58713 -3.49495,4.63996 -5.90763,6.16096 -2.40279,1.51473 -5.16419,2.54283 -8.28129,3.08713 -3.4647,0.60501 -6.39652,0.65421 -8.80312,0.15089 -2.39998,-0.50193 -4.27653,-1.56332 -5.63397,-3.18445 -1.3566,-1.62008 -2.34801,-3.69697 -2.97533,-6.23324 -0.62792,-2.53866 -1.01195,-6.45638 -1.15201,-11.76529 0,0 -0.42569,-16.13454 -0.42569,-16.13454 -0.15554,-5.89526 0.23615,-10.62428 1.17813,-14.17968 0.94541,-3.56831 2.73958,-6.6677 5.39019,-9.29854 2.66435,-2.64439 6.1272,-4.44253 10.39744,-5.38838 3.60485,-0.79834 6.72642,-0.81993 9.35645,-0.0601 2.63732,0.76209 4.68927,2.06158 6.15096,3.89774 1.46248,1.83738 2.47431,3.83833 3.0345,6.00081 0.55969,2.161 0.8727,5.55802 0.93919,10.18182 0,0 0,0 0,0 m -16.24404,-1.55585 c -0.0652,-3.31277 -0.25173,-5.37242 -0.55945,-6.17368 -0.30781,-0.80125 -0.93709,-1.10056 -1.88685,-0.89801 -0.94853,0.2024 -1.57114,0.76779 -1.86856,1.69567 -0.29716,0.92709 -0.41055,3.04336 -0.34052,6.34422 0,0 0.6103,28.77212 0.6103,28.77212 0.0632,2.97882 0.25993,4.888 0.59034,5.73182 0.33031,0.84371 0.94981,1.18261 1.85942,1.01661 0.93678,-0.17092 1.54728,-0.69552 1.83078,-1.57422 0.28373,-0.87954 0.39884,-2.68481 0.34505,-5.41888 0,0 -0.58051,-29.49565 -0.58051,-29.49565"
         inkscape:connector-curvature="0" />
      <path
         id="path6248"
         style="text-align:center;text-anchor:middle;fill:#ffffff;fill-opacity:1"
         d="m 330.66243,391.29032 c 0,0 -0.24733,6.43908 -0.24733,6.43908 1.29602,-2.81279 2.85319,-5.05648 4.6727,-6.72798 1.82554,-1.67692 3.91494,-2.77761 6.26932,-3.29913 4.61704,-1.02252 8.27399,0.73977 10.94963,5.29269 1.46918,-2.88854 3.13127,-5.184 4.98692,-6.88275 1.86175,-1.70427 3.93234,-2.81048 6.21232,-3.31553 3.02134,-0.6691 5.52679,-0.35484 7.50942,0.94631 1.98556,1.3033 3.25236,3.1565 3.79777,5.55652 0.54481,2.39804 0.79616,6.42168 0.75453,12.057 0,0 -0.35548,48.05029 -0.35548,48.05029 0,0 -16.90646,2.96573 -16.90646,2.96573 0,0 0.0786,-43.47281 0.0786,-43.47281 0.0104,-5.78868 -0.1494,-9.34848 -0.47959,-10.66343 -0.33045,-1.31541 -1.10282,-1.84386 -2.31551,-1.58522 -1.23961,0.26449 -2.03862,1.11774 -2.39822,2.55859 -0.35918,1.43901 -0.53838,5.06503 -0.53799,10.86312 0,0 0.003,43.29087 0.003,43.29087 0,0 -16.40539,2.87783 -16.40539,2.87783 0,0 -0.22915,-41.6607 -0.22915,-41.6607 -0.0359,-6.52712 -0.19083,-10.42866 -0.46468,-11.68422 -0.27404,-1.25605 -1.01416,-1.75569 -2.21878,-1.49878 -0.75541,0.16121 -1.39592,0.64272 -1.92167,1.44394 -0.52517,0.80039 -0.81181,1.70048 -0.86034,2.7004 -0.0485,0.99932 -0.061,3.10357 -0.0377,6.30828 0,0 0.33067,45.33863 0.33067,45.33863 0,0 -15.92803,2.79409 -15.92803,2.79409 0,0 -0.81862,-65.03885 -0.81862,-65.03885 0,0 16.56031,-3.65397 16.56031,-3.65397"
         inkscape:connector-curvature="0" />
      <path
         id="path6250"
         style="text-align:center;text-anchor:middle;fill:#ffffff;fill-opacity:1"
         d="m 234.40994,585.65793 c 0,0 0.33403,8.14336 0.33403,8.14336 0,0 -10.82057,0.94668 -10.82057,0.94668 -2.58308,0.22599 -4.40759,0.14575 -5.47995,-0.23969 -1.0711,-0.38498 -1.81251,-1.03827 -2.22527,-1.96029 -0.41284,-0.92214 -0.67846,-2.62602 -0.79697,-5.11478 -3.1853,0.18813 -5.95937,-0.57931 -8.32966,-2.29882 -2.36541,-1.71596 -3.98557,-4.0288 -4.86477,-6.94332 -0.88007,-2.91734 -1.47688,-7.36251 -1.79077,-13.3519 0,0 -1.09206,-20.83766 -1.09206,-20.83766 -0.24187,-4.61512 -0.21032,-8.17111 0.0957,-10.66138 0.30677,-2.49592 1.08425,-4.92069 2.3352,-7.27622 1.25536,-2.36372 2.9356,-4.25839 5.04373,-5.68203 2.11656,-1.4292 4.50726,-2.33955 7.17366,-2.7279 3.22747,-0.46991 6.15013,-0.19779 8.76191,0.82026 2.61916,1.02109 4.61051,2.51388 5.96887,4.4768 1.35887,1.96389 2.27845,4.06868 2.75798,6.31212 0.47898,2.24134 0.81103,5.62067 0.99606,10.12927 0,0 0.92115,22.45024 0.92115,22.45024 0.24969,6.08631 0.17678,10.22483 -0.21731,12.43102 -0.3933,2.20136 -1.24508,4.00247 -2.55318,5.4039 -1.3044,1.39741 -3.06696,2.53616 -5.28421,3.41677 0.13375,1.48598 0.42984,2.40093 0.88852,2.74596 0.4588,0.34519 1.51639,0.4404 3.17565,0.28527 0,0 5.00222,-0.46766 5.00222,-0.46766 m -16.6795,-49.09565 c -0.14805,-3.21716 -0.38558,-5.2586 -0.71236,-6.11916 -0.32688,-0.8606 -0.9352,-1.23014 -1.82401,-1.10862 -0.75119,0.10281 -1.30821,0.54477 -1.67143,1.32531 -0.36286,0.77982 -0.45964,2.94592 -0.29097,6.49251 0,0 1.5117,31.78839 1.5117,31.78839 0.18567,3.90449 0.42869,6.2952 0.72939,7.17982 0.3006,0.88444 0.92127,1.27912 1.86303,1.18409 0.96553,-0.0974 1.55946,-0.68515 1.78094,-1.76403 0.22169,-1.08007 0.24139,-3.60396 0.0585,-7.57891 0,0 -1.44479,-31.3994 -1.44479,-31.3994"
         inkscape:connector-curvature="0" />
      <path
         id="path6252"
         style="text-align:center;text-anchor:middle;fill:#ffffff;fill-opacity:1"
         d="m 270.60859,524.08504 c 0,0 1.61849,58.03733 1.61849,58.03733 0,0 -14.77189,1.38104 -14.77189,1.38104 0,0 0.0951,-4.69593 0.0951,-4.69593 -0.93375,1.99435 -2.11146,3.53177 -3.53211,4.61413 -1.41678,1.0794 -3.06342,1.70515 -4.93901,1.87911 -2.12732,0.19732 -3.90398,-0.0873 -5.33344,-0.85254 -1.42743,-0.76417 -2.49928,-1.85561 -3.21708,-3.27521 -0.71786,-1.41968 -1.1894,-2.92701 -1.41473,-4.52298 -0.22555,-1.59736 -0.43298,-4.80033 -0.62263,-9.61986 0,0 -1.51115,-38.40119 -1.51115,-38.40119 0,0 14.39196,-1.94466 14.39196,-1.94466 0,0 1.34901,39.16907 1.34901,39.16907 0.15207,4.41595 0.35447,7.01928 0.6075,7.8199 0.25294,0.80045 0.8764,1.15091 1.87149,1.05139 1.06773,-0.10675 1.68909,-0.59694 1.863,-1.47101 0.17401,-0.87481 0.18455,-3.6371 0.0311,-8.29747 0,0 -1.27991,-38.87211 -1.27991,-38.87211 0,0 14.79425,-1.99901 14.79425,-1.99901"
         inkscape:connector-curvature="0" />
      <path
         id="path6254"
         style="text-align:center;text-anchor:middle;fill:#ffffff;fill-opacity:1"
         d="m 311.49398,549.88096 c 0,0 -20.00063,2.26707 -20.00063,2.26707 0,0 0.26627,12.67643 0.26627,12.67643 0.0554,2.63625 0.25351,4.31615 0.59451,5.04326 0.34095,0.72709 0.97442,1.04432 1.90136,0.95162 1.15403,-0.11539 1.91667,-0.69789 2.28687,-1.74835 0.37061,-1.05175 0.52819,-3.03253 0.47232,-5.94576 0,0 -0.14875,-7.75277 -0.14875,-7.75277 0,0 14.68275,-1.62476 14.68275,-1.62476 0,0 0.0622,4.39383 0.0622,4.39383 0.0518,3.66633 -0.10777,6.49743 -0.47818,8.49735 -0.36978,1.99615 -1.26841,4.1741 -2.69265,6.53041 -1.41925,2.34797 -3.22965,4.17442 -5.42865,5.48182 -2.19058,1.30237 -4.94188,2.10557 -8.24864,2.41228 -3.19199,0.29607 -6.00986,0.0213 -8.45944,-0.82158 -2.44301,-0.84063 -4.3548,-2.12668 -5.73964,-3.85904 -1.38401,-1.7313 -2.36173,-3.6902 -2.93414,-5.87886 -0.57287,-2.19042 -0.91566,-5.43208 -1.02827,-9.73319 0,0 -0.4449,-16.99374 -0.4449,-16.99374 -0.13437,-5.13239 0.34147,-9.26754 1.43087,-12.40058 1.09344,-3.14456 2.95794,-5.69797 5.60016,-7.65869 2.65518,-1.97023 5.74627,-3.19797 9.27664,-3.67778 4.34168,-0.58993 7.96105,-0.098 10.8439,1.48165 2.89046,1.58399 4.9409,3.92433 6.14499,7.01651 1.2033,3.09046 1.84611,7.56166 1.9287,13.39753 0,0 0.1124,7.94534 0.1124,7.94534 m -15.72462,-7.8845 c 0,0 -0.0847,-4.35234 -0.0847,-4.35234 -0.0602,-3.08881 -0.23908,-5.06879 -0.53667,-5.93517 -0.29769,-0.86649 -0.879,-1.24431 -1.7431,-1.13342 -1.066,0.13691 -1.71714,0.60424 -1.95446,1.40163 -0.23714,0.79678 -0.3204,2.87168 -0.25007,6.21947 0,0 0.0911,4.33783 0.0911,4.33783 0,0 4.47794,-0.538 4.47794,-0.538"
         inkscape:connector-curvature="0" />
      <path
         id="path6256"
         style="text-align:center;text-anchor:middle;fill:#ffffff;fill-opacity:1"
         d="m 349.61789,533.33471 c 0,0 -14.54579,1.76918 -14.54579,1.76918 0,0 -0.0201,-3.32896 -0.0201,-3.32896 -0.0172,-2.84169 -0.16928,-4.62584 -0.45622,-5.34841 -0.28701,-0.72256 -0.99475,-1.01146 -2.12186,-0.86681 -0.91119,0.11704 -1.59124,0.55229 -2.04062,1.30526 -0.44892,0.75225 -0.66775,1.82164 -0.65688,3.2078 0.0147,1.87704 0.13876,3.23854 0.37212,4.08609 0.23327,0.8474 0.9204,1.72385 2.06215,2.63013 1.14269,0.90712 3.48797,2.14821 7.04438,3.72681 4.7611,2.09294 7.89915,4.22902 9.39796,6.40163 1.49938,2.1736 2.25081,5.49081 2.2538,9.94075 0.003,4.95568 -0.5632,8.74099 -1.69658,11.36209 -1.12976,2.6126 -3.01631,4.7146 -5.65347,6.30698 -2.62535,1.58521 -5.77963,2.54639 -9.45779,2.88755 -4.05363,0.37599 -7.51022,-0.0175 -10.38029,-1.17647 -2.86165,-1.15552 -4.83445,-2.89725 -5.9249,-5.2281 -1.09068,-2.33133 -1.66731,-5.96768 -1.72985,-10.9213 0,0 -0.0363,-2.87245 -0.0363,-2.87245 0,0 14.06874,-1.51817 14.06874,-1.51817 0,0 0.0297,3.80759 0.0297,3.80759 0.0251,3.22566 0.21949,5.29891 0.58303,6.22497 0.36345,0.92592 1.07315,1.33603 2.1303,1.2303 1.13809,-0.11379 1.93117,-0.51712 2.37824,-1.21038 0.44751,-0.69398 0.66539,-2.08296 0.65325,-4.16866 -0.0168,-2.87646 -0.32036,-4.64968 -0.91056,-5.31525 -0.61666,-0.66247 -3.75204,-2.47778 -9.38409,-5.43444 -4.70635,-2.49843 -7.57574,-4.91629 -8.6238,-7.26226 -1.04837,-2.34654 -1.59434,-5.21762 -1.63778,-8.6187 -0.0618,-4.84175 0.44276,-8.49355 1.51645,-10.94916 1.07702,-2.4631 2.9359,-4.50585 5.58309,-6.128 2.65922,-1.6294 5.77068,-2.68844 9.33837,-3.17331 3.55816,-0.48346 6.60021,-0.37223 9.11827,0.33689 2.52484,0.71118 4.469,1.84009 5.828,3.38605 1.35985,1.54712 2.1852,3.03921 2.47526,4.47485 0.28981,1.43489 0.43638,3.71561 0.43984,6.83786 0,0 0.004,3.59805 0.004,3.59805"
         inkscape:connector-curvature="0" />
      <path
         id="path6258"
         style="text-align:center;text-anchor:middle;fill:#ffffff;fill-opacity:1"
         d="m 373.37139,501.66632 c 0,0 -0.0696,10.08026 -0.0696,10.08026 0,0 4.66083,-0.625 4.66083,-0.625 0,0 -0.0856,10.09312 -0.0856,10.09312 0,0 -4.64473,0.59173 -4.64473,0.59173 0,0 -0.23152,33.51137 -0.23152,33.51137 -0.0281,4.0696 0.1448,6.31342 0.51881,6.74008 0.37403,0.42675 1.94657,0.50148 4.72525,0.22336 0,0 -0.0867,9.93754 -0.0867,9.93754 0,0 -6.82024,0.63763 -6.82024,0.63763 -3.82226,0.35735 -6.53782,0.43553 -8.15895,0.23621 -1.61802,-0.19893 -3.04022,-0.87297 -4.26822,-2.02176 -1.22705,-1.14787 -1.98913,-2.523 -2.28713,-4.12692 -0.29823,-1.60506 -0.44393,-5.43906 -0.43697,-11.5201 0,0 0.036,-31.45043 0.036,-31.45043 0,0 -3.60373,0.45911 -3.60373,0.45911 0,0 -7.6e-4,-9.91235 -7.6e-4,-9.91235 0,0 3.61588,-0.48487 3.61588,-0.48487 0,0 0.0114,-9.95751 0.0114,-9.95751 0,0 17.126,-2.41147 17.126,-2.41147"
         inkscape:connector-curvature="0" />
    </g>
  </g>
  <g
     style="display:none"
     inkscape:label="RQ"
     id="layer2"
     inkscape:groupmode="layer"
     transform="translate(0,20)">
    <g
       transform="translate(519.50457,286.40984)"
       style="font-size:144px;font-style:normal;font-variant:normal;font-weight:normal;font-stretch:normal;line-height:125%;letter-spacing:0px;word-spacing:0px;fill:#ffffff;fill-opacity:1;stroke:none;display:inline;font-family:Impact;-inkscape-font-specification:Impact"
       id="flowRoot6633">
      <path
         inkscape:connector-curvature="0"
         d="m -310.22654,-151.92 c 0,0 25.69496,-6.09624 25.69496,-6.09624 17.70305,-4.19994 30.00017,-6.1448 36.57223,-5.7474 6.62397,0.40097 12.17668,4.10925 16.61544,11.11735 4.4343,7.0017 6.90044,19.11896 7.39593,36.15965 0.44568,15.33371 -0.70875,25.777222 -3.44037,31.45107 -2.70763,5.623917 -8.20892,9.629794 -16.4409,12.031263 7.56961,1.157037 12.74685,3.550102 15.48207,7.171741 2.7352,3.62203 4.47243,7.068245 5.21039,10.333142 0.73615,3.257902 1.32204,12.395189 1.75429,27.260936 0,0 1.37139,47.173278 1.37139,47.173278 0,0 -33.66394,3.321512 -33.66394,3.321512 0,0 -2.63767,-58.203874 -2.63767,-58.203874 -0.43883,-9.682308 -1.30529,-15.630993 -2.59676,-17.780729 -1.29211,-2.15044 -4.44338,-2.8302 -9.42557,-2.042983 0,0 3.99176,79.080187 3.99176,79.080187 0,0 -33.93238,3.347998 -33.93238,3.347998 0,0 -11.95087,-178.576901 -11.95087,-178.576901 m 38.30301,25.05781 c 0,0 2.13899,42.375149 2.13899,42.375149 4.11296,-0.738832 6.97439,-2.014512 8.5699,-3.82887 1.60158,-1.82113 2.21521,-6.916345 1.83405,-15.328439 0,0 -0.47974,-10.58612 -0.47974,-10.58612 -0.27885,-6.15205 -1.28243,-10.03496 -3.00867,-11.62221 -1.72513,-1.58579 -4.74994,-1.92055 -9.05453,-1.00951 0,0 0,0 0,0"
         id="path6650" />
      <path
         inkscape:connector-curvature="0"
         d="m -112.88764,8.365262 c 0,0 -0.50532,22.675728 -0.50532,22.675728 0,0 -31.51745,2.632374 -31.51745,2.632374 -7.40065,0.618079 -12.5678,0.402802 -15.55107,-0.638939 -2.97485,-1.038797 -4.98264,-2.803767 -6.03064,-5.299156 -1.04918,-2.498031 -1.58811,-7.128168 -1.61607,-13.921573 -8.99923,0.590047 -16.68283,-1.432001 -23.11413,-6.0471659 -6.40619,-4.5971049 -10.68682,-10.8473432 -12.86867,-18.7933341 -2.19257,-7.984971 -3.47953,-20.268451 -3.85717,-37.016106 0,0 -1.34863,-59.80661 -1.34863,-59.80661 -0.30623,-13.57961 0.0834,-24.1705 1.17851,-31.69361 1.10423,-7.58552 3.57939,-15.1065 7.45181,-22.57965 3.9174,-7.55957 9.07665,-13.83383 15.5017,-18.80171 6.5037,-5.02829 13.82375,-8.53671 21.96891,-10.49545 9.93945,-2.38972 18.90544,-2.34246 26.83662,0.17975 7.98691,2.5405 13.94911,6.7731 17.84264,12.68179 3.89105,5.90572 6.36988,12.36184 7.43437,19.34591 1.05919,6.95125 1.43014,17.46694 1.11956,31.44002 0,0 -1.50459,67.665328 -1.50459,67.665328 -0.39622,17.813722 -1.39116,29.820295 -2.98039,36.201796 -1.57715,6.332226 -4.43491,11.516481 -8.55491,15.5624453 -4.08393,4.0104091 -9.44198,7.2903145 -16.04766,9.8454631 0.15754,4.1404381 0.87458,6.6773949 2.15222,7.6229026 1.2784,0.946212 4.34039,1.18057 9.20923,0.7001767 0,0 14.80113,-1.4603797 14.80113,-1.4603797 m -41.67177,-141.880652 c 0.0217,-9.82666 -0.39857,-16.06385 -1.26174,-18.64909 -0.8644,-2.58811 -2.65036,-3.59244 -5.34952,-3.01217 -2.27615,0.48968 -4.01006,1.98005 -5.20385,4.4655 -1.18955,2.47677 -1.7618,9.13105 -1.72032,19.89151 0,0 0.35845,93.098077 0.35845,93.098077 0.0425,11.035448 0.43871,17.742665 1.18834,20.204338 0.7485,2.458376 2.4757,3.527031 5.19001,3.20766 2.78941,-0.328175 4.58092,-2.012845 5.36873,-5.061926 0.79077,-3.060836 1.19975,-10.208832 1.22486,-21.52457 0,0 0.20504,-92.619329 0.20504,-92.619329"
         id="path6652" />
    </g>
  </g>
  <g
     inkscape:label="Mountain"
     id="layer4"
     inkscape:groupmode="layer"
     style="display:inline"
     transform="translate(0,20)">
    <g
       id="g7459"
       transform="translate(-180,-177.36218)"
       style="fill:#ffffff;fill-opacity:1;display:inline">
      <path
         style="fill:#ffffff;fill-opacity:1;stroke:none"
         d="m 600,542.3622 -60,5 0,20 60,5 5,-1 0,-28 z"
         id="path4552"
         inkscape:connector-curvature="0"
         sodipodi:nodetypes="ccccccc" />
    </g>
    <path
       id="path3974"
       style="fill:none;stroke:#ffffff;stroke-width:20;stroke-linecap:butt;stroke-linejoin:miter;stroke-miterlimit:4;stroke-opacity:1;stroke-dasharray:none;display:inline"
       d="M 487.77742,70.01284 540,70.01284 500,670 M 180,70 460,-10 440,710 220,670 z"
       inkscape:connector-curvature="0"
       sodipodi:nodetypes="cccccccc" />
    <path
       sodipodi:nodetypes="ccssssssssscccsssscccsscccssssssssssccccccccscssssscssscccssscccssscsssscsscssscccccccccsscsscsccssscssssssscssscssssssccccc"
       inkscape:connector-curvature="0"
       id="path3196"
       d="m 222.12856,276.46769 c 0,0 -2.65859,0.31612 -2.65859,0.31612 0,0 -0.0486,-0.72588 -0.0486,-0.72588 -0.0267,-0.39946 0.21211,-2.76569 0.53163,-5.2651 0.32052,-2.50706 1.0894,-7.18606 1.71011,-10.40303 0.62331,-3.23055 1.68077,-8.0327 2.34971,-10.66774 0.67139,-2.64468 2.01652,-7.27932 2.99086,-10.30256 0.97868,-3.03668 2.68017,-7.74529 3.78138,-10.4618 1.10593,-2.72809 3.6193,-8.08351 5.59264,-11.9129 1.98625,-3.85444 4.93936,-9.11543 6.55755,-11.679 1.62582,-2.5757 4.88349,-7.12561 7.24522,-10.11623 0,0 4.33104,-5.48431 4.33104,-5.48431 0,0 5.7955,-5.63029 5.7955,-5.63029 0,0 5.87204,-5.70464 5.87204,-5.70464 0,0 3.39408,-2.48587 3.39408,-2.48587 1.8766,-1.37445 4.69294,-3.34783 6.25638,-4.38344 1.56813,-1.03872 5.07979,-3.01486 7.81125,-4.39455 2.74463,-1.38631 6.8398,-3.19407 9.0958,-4.01388 0,0 4.12285,-1.49817 4.12285,-1.49817 0,0 7.74218,-1.51288 7.74218,-1.51288 0,0 7.82923,-1.52988 7.82923,-1.52988 0,0 5.20318,-0.0307 5.20318,-0.0307 2.87622,-0.017 7.65011,0.27757 10.60811,0.6557 0,0 5.40334,0.69074 5.40334,0.69074 0,0 5.89962,1.7327 5.89962,1.7327 0,0 5.93319,1.74253 5.93319,1.74253 0,0 4.26271,2.24183 4.26271,2.24183 2.35025,1.23606 4.35638,2.23429 4.45435,2.21633 0.098,-0.018 1.97947,1.13442 4.18388,2.56268 2.20749,1.43024 5.88556,4.10102 8.17304,5.93507 2.29002,1.83616 6.19895,5.50325 8.68557,8.14874 2.48816,2.64717 5.74673,6.45042 7.23983,8.45021 1.4931,1.99977 3.93917,5.5459 5.43528,7.87967 1.49568,2.33309 3.94533,6.6714 5.44287,9.63903 1.49625,2.96503 3.56145,7.39779 4.58962,9.85075 1.02715,2.45057 2.67981,6.79457 3.67219,9.6519 0,0 1.80085,5.18501 1.80085,5.18501 0,0 1.9732,8.27052 1.9732,8.27052 0,0 1.96316,8.22836 1.96316,8.22836 0,0 -0.0332,1.48811 -0.0332,1.48811 0,0 -0.0331,1.48604 -0.0331,1.48604 0,0 -4.36585,0.16358 -4.36585,0.16358 0,0 -4.34183,0.16269 -4.34183,0.16269 0,0 -1.16034,-0.46844 -1.16034,-0.46844 -0.6377,-0.25742 -1.67302,-1.11878 -2.30102,-1.91421 0,0 -1.14173,-1.44616 -1.14173,-1.44616 0,0 -1.03767,-4.18638 -1.03767,-4.18638 -0.57185,-2.30712 -1.86272,-6.80091 -2.86942,-9.98808 -1.00839,-3.19255 -2.82677,-8.26166 -4.04067,-11.26321 -1.21542,-3.00533 -3.30642,-7.62681 -4.64617,-10.26841 -1.3408,-2.64361 -4.18715,-7.45814 -6.32497,-10.69809 0,0 -3.88875,-5.89361 -3.88875,-5.89361 0,0 -2.89712,-3.12 -2.89712,-3.12 -1.59256,-1.71508 -3.53665,-3.83566 -4.32067,-4.7129 -0.78388,-0.87709 -3.76853,-3.42381 -6.62883,-5.65651 0,0 -5.18981,-4.05105 -5.18981,-4.05105 0,0 -5.19632,-2.63284 -5.19632,-2.63284 0,0 -5.17567,-2.6224 -5.17567,-2.6224 0,0 -4.7288,-1.43963 -4.7288,-1.43963 -2.59176,-0.78905 -6.89345,-1.74275 -9.55799,-2.12007 -2.65665,-0.37624 -6.71404,-0.71983 -9.01757,-0.76445 0,0 -4.17156,-0.0808 -4.17156,-0.0808 0,0 -9.52939,1.77913 -9.52939,1.77913 0,0 -9.40065,1.75509 -9.40065,1.75509 0,0 -4.68059,1.94057 -4.68059,1.94057 -2.55882,1.0609 -6.2885,2.83047 -8.29145,3.93285 -1.99573,1.09843 -5.53707,3.31205 -7.86649,4.91611 0,0 -4.20831,2.89785 -4.20831,2.89785 0,0 -5.10538,4.8698 -5.10538,4.8698 -2.78336,2.65493 -6.01139,6.04483 -7.18588,7.54399 -1.17097,1.49463 -3.04252,3.8842 -4.15927,5.31048 -1.11355,1.42215 -3.69948,5.47937 -5.73786,8.99979 0,0 -3.67392,6.34511 -3.67392,6.34511 0,0 -2.07204,4.65248 -2.07204,4.65248 -1.13306,2.54415 -3.08055,7.4895 -4.32603,10.98245 0,0 -2.24792,6.30436 -2.24792,6.30436 0,0 -1.68777,6.56393 -1.68777,6.56393 -0.92183,3.58509 -2.0768,8.60321 -2.56922,11.15971 -0.49081,2.54804 -1.02881,5.72708 -1.19679,7.07017 0,0 -0.30472,2.43641 -0.30472,2.43641 0,0 -0.82671,1.48201 -0.82671,1.48201 0,0 -0.8245,1.47801 -0.8245,1.47801 0,0 -1.79967,1.04928 -1.79967,1.04928 0,0 -1.7932,1.04548 -1.7932,1.04548 0,0 -2.66942,0.31741 -2.66942,0.31741 0,0 -5e-5,-6.9e-4 -5e-5,-6.9e-4 m 84.75101,-10.12084 c 0,0 -70.3364,8.32517 -70.3364,8.32517 0,0 1.80987,-1.21644 1.80987,-1.21644 0.99834,-0.671 2.54102,-1.88704 3.42794,-2.70258 0,0 1.6173,-1.48711 1.6173,-1.48711 0,0 5.03575,-9.22359 5.03575,-9.22359 2.80501,-5.13773 6.16216,-11.28034 7.44188,-13.61647 0,0 2.34023,-4.27203 2.34023,-4.27203 0,0 5.55008,0.66575 5.55008,0.66575 3.06866,0.3681 6.01887,0.61748 6.54592,0.5529 0,0 0.95929,-0.11822 0.95929,-0.11822 0,0 2.29474,-3.72507 2.29474,-3.72507 1.26872,-2.05953 2.99184,-4.7899 3.82664,-6.0632 0.83677,-1.27632 2.62315,-3.9035 3.97242,-5.84192 0,0 2.46599,-3.54271 2.46599,-3.54271 0,0 0.53365,-0.081 0.53365,-0.081 0.29368,-0.0446 1.72135,0.24853 3.17446,0.65187 1.45531,0.40398 4.35634,1.1991 6.44886,1.76752 2.09711,0.56969 4.0381,1.00393 4.30926,0.96386 0.27126,-0.0401 4.28381,-4.3231 8.96342,-9.57025 4.73191,-5.30575 9.40271,-10.51599 10.33313,-11.52613 0.93242,-1.01232 2.69124,-2.81594 3.90965,-4.00903 0,0 2.22365,-2.17741 2.22365,-2.17741 0,0 1.46602,0.96261 1.46602,0.96261 0.8069,0.52983 2.9301,2.18248 4.71923,3.67347 1.79067,1.49226 4.59708,3.92636 6.23609,5.40885 1.64012,1.48351 3.084,2.85419 3.20762,3.04508 0.12366,0.19088 1.25687,1.29822 2.5189,2.46129 1.26264,1.16366 3.78187,3.59579 5.59867,5.40516 1.81789,1.81046 5.22579,5.23889 7.5737,7.61932 2.34961,2.38217 5.28305,5.36811 6.5176,6.63427 1.23501,1.26663 4.58189,4.81286 7.43897,7.88206 2.85911,3.07139 6.32738,6.75844 7.70591,8.19193 0,0 2.50776,2.60776 2.50776,2.60776 0,0 2.93929,1.5458 2.93929,1.5458 0,0 2.94586,1.54924 2.94586,1.54924 0,0 -78.22336,9.25871 -78.22336,9.25871 0,0 10e-6,5.2e-4 10e-6,5.2e-4"
       style="fill:#ffffff;fill-opacity:1" />
  </g>
</svg>
