<?xml version="1.0" encoding="UTF-8" standalone="no"?>
<!-- Generator: Adobe Illustrator 17.0.2, SVG Export Plug-In . SVG Version: 6.00 Build 0)  -->

<svg
   xmlns:dc="http://purl.org/dc/elements/1.1/"
   xmlns:cc="http://creativecommons.org/ns#"
   xmlns:rdf="http://www.w3.org/1999/02/22-rdf-syntax-ns#"
   xmlns:svg="http://www.w3.org/2000/svg"
   xmlns="http://www.w3.org/2000/svg"
   xmlns:sodipodi="http://sodipodi.sourceforge.net/DTD/sodipodi-0.dtd"
   xmlns:inkscape="http://www.inkscape.org/namespaces/inkscape"
   version="1.1"
   x="0px"
   y="0px"
   width="906.61401"
   height="668.45184"
   viewBox="0 0 906.61401 668.45184"
   enable-background="new 0 0 1024 1024"
   xml:space="preserve"
   id="svg2"
   inkscape:version="0.91 r13725"
   sodipodi:docname="splashscreenstatic.svg"><metadata
   id="metadata40"><rdf:RDF><cc:Work
       rdf:about=""><dc:format>image/svg+xml</dc:format><dc:type
         rdf:resource="http://purl.org/dc/dcmitype/StillImage" /><dc:title></dc:title></cc:Work></rdf:RDF></metadata><defs
   id="defs38">
	
	
	
	
		
	
	
	
	
	
	
	
<clipPath
   clipPathUnits="userSpaceOnUse"
   id="clipPath5915"><rect
     y="0"
     x="0"
     height="622.33002"
     width="1024"
     id="rect5917"
     style="opacity:1;fill:none;fill-opacity:1;fill-rule:evenodd;stroke:#ffffff;stroke-width:10;stroke-linecap:round;stroke-linejoin:bevel;stroke-miterlimit:4;stroke-dasharray:10, 30;stroke-dashoffset:0;stroke-opacity:1" /></clipPath><clipPath
   clipPathUnits="userSpaceOnUse"
   id="clipPath5919"><rect
     y="0"
     x="0"
     height="622.33002"
     width="1024"
     id="rect5921"
     style="opacity:1;fill:none;fill-opacity:1;fill-rule:evenodd;stroke:#ffffff;stroke-width:10;stroke-linecap:round;stroke-linejoin:bevel;stroke-miterlimit:4;stroke-dasharray:10, 30;stroke-dashoffset:0;stroke-opacity:1" /></clipPath></defs><sodipodi:namedview
   pagecolor="#0072c6"
   bordercolor="#666666"
   borderopacity="1"
   objecttolerance="10"
   gridtolerance="10"
   guidetolerance="10"
   inkscape:pageopacity="0"
   inkscape:pageshadow="2"
   inkscape:window-width="1440"
   inkscape:window-height="838"
   id="namedview36"
   showgrid="false"
   inkscape:snap-page="true"
   inkscape:object-paths="true"
   inkscape:snap-midpoints="true"
   inkscape:snap-smooth-nodes="true"
   inkscape:object-nodes="true"
   inkscape:snap-intersection-paths="true"
   fit-margin-top="0"
   fit-margin-left="0"
   fit-margin-right="0"
   fit-margin-bottom="0"
   inkscape:zoom="0.65186406"
   inkscape:cx="749.6016"
   inkscape:cy="252.88471"
   inkscape:window-x="1432"
   inkscape:window-y="-8"
   inkscape:window-maximized="1"
   inkscape:current-layer="svg2"><inkscape:grid
     type="xygrid"
     id="grid5848"
     originx="-58.692993"
     originy="-256.01617" /></sodipodi:namedview>
<ellipse
   style="fill:none;stroke:#ffffff;stroke-width:57;stroke-miterlimit:10"
   id="ellipse19"
   ry="423.53101"
   rx="424.80701"
   cy="551.56299"
   cx="512"
   stroke-miterlimit="10"
   clip-path="url(#clipPath5919)"
   transform="translate(-58.692993,-99.531982)" /><rect
   y="-99.531982"
   x="-58.692993"
   height="622.33002"
   width="1024"
   id="rect5910"
   style="opacity:1;fill:none;fill-opacity:1;fill-rule:evenodd;stroke:none;stroke-width:100;stroke-linecap:round;stroke-linejoin:bevel;stroke-miterlimit:4;stroke-dasharray:none;stroke-opacity:1" /><path
   style="opacity:0.6;fill:#ffffff;stroke:none"
   inkscape:connector-curvature="0"
   id="path21"
   d="m 79.455007,326.07902 746.383003,0 c 0,0 -260.766,-214.604 -275.495,-214.604 -14.729,0 -137.471,83.17 -140.744,87.791 -3.273,4.621 -52.37,-27.723 -62.189,-30.804 -9.819,-3.08 -86.738,56.987 -86.738,61.608 0,4.621 -36.004,4.621 -36.004,4.621 0,0 -29.458,-13.344 -36.004,-15.913 0,-0.001 -94.039003,86.256 -109.209003,107.301 z"
   sodipodi:nodetypes="ccccccccc" /><path
   style="fill:#ffffff;stroke:none;stroke-width:0.1188;stroke-miterlimit:10"
   inkscape:connector-curvature="0"
   id="path23"
   d="m 227.25,493.653 c 0,0 74.063,-34.254 87.9,-52.14 0,0 51.972,-34.085 67.833,-35.772 0,0 17.886,-6.075 22.274,-6.075 0,0 38.135,-49.609 45.222,-50.959 0,0 31.048,-23.286 40.16,-25.311 l 24.298,1.687 c 0,0 25.648,-13.836 31.385,-22.611 0,0 31.048,-26.661 34.423,-31.385 l 14.849,-17.886 c 0,0 6.412,-11.474 15.862,-11.137 0,0 18.561,0 20.586,14.512 l 0,3.037 c 0,0 3.037,2.362 3.375,3.037 l 0,5.737 c 0,0 7.087,5.737 8.774,15.187 0,0 0.337,31.385 0,31.385 -0.337,0 2.025,10.462 2.025,10.462 l -5.4,-2.362 c 0,0 -11.137,54.334 -12.824,55.009 0,0 -3.712,16.536 -3.375,18.899 l 14.174,-4.05 c 0,0 0,-18.561 -3.375,-18.899 0,0 17.549,3.375 19.574,15.187 l 5.062,0 c 0,0 3.712,-5.737 -3.037,-11.812 0,0 10.799,-1.012 17.211,10.124 0,0 11.812,1.35 12.149,9.112 0,0 0.337,13.162 0,13.837 0,0 -109.343,106.643 -109.343,111.03 0,0 18.561,-12.487 20.924,-12.149 0,0 -27.336,74.245 -28.011,96.181 0,0 -6.075,39.485 -6.75,52.309 0,0 55.093,199.808 -2.025,82.007 -57.118,-117.801 -190.674,-81.67 -195.399,-78.633 l 37.798,-66.483 c 0,0 -55.009,-16.537 -68.508,6.412 0,0 21.599,-29.698 40.497,-29.698 0,0 -47.247,-8.1 -56.696,8.099 0,0 25.648,-33.748 51.297,-35.098 l -4.05,-18.899 c 0,10e-4 -127.878,13.163 -138.859,-31.891 z"
   stroke-miterlimit="10"
   clip-path="url(#clipPath5915)"
   transform="translate(-58.692993,-99.531982)" /><text
   style="font-size:134px;font-family:Roboto-Regular;fill:#ffffff"
   id="text29"
   font-size="134"
   x="103.3222"
   y="624.86871">Roomquest</text>
<text
   style="font-size:60px;font-family:MyriadPro-Regular;fill:#ffffff"
   id="text33"
   font-size="60"
   x="810.30701"
   y="668.45184">tm</text>


</svg>