<?xml version="1.0" encoding="UTF-8" standalone="no"?>
<!-- Created with Inkscape (http://www.inkscape.org/) -->

<svg
   xmlns:dc="http://purl.org/dc/elements/1.1/"
   xmlns:cc="http://creativecommons.org/ns#"
   xmlns:rdf="http://www.w3.org/1999/02/22-rdf-syntax-ns#"
   xmlns:svg="http://www.w3.org/2000/svg"
   xmlns="http://www.w3.org/2000/svg"
   xmlns:sodipodi="http://sodipodi.sourceforge.net/DTD/sodipodi-0.dtd"
   xmlns:inkscape="http://www.inkscape.org/namespaces/inkscape"
   width="876.28998"
   height="876.28998"
   id="svg3010"
   version="1.1"
   inkscape:version="0.48.4 r9939"
   sodipodi:docname="Toilet Sign.svg"
   inkscape:export-filename="C:\Users\Michael\AndroidStudioProjects\Room-Quest\app\src\main\res\drawable\toilet.png"
   inkscape:export-xdpi="13.146333"
   inkscape:export-ydpi="13.146333">
  <defs
     id="defs3012" />
  <sodipodi:namedview
     id="base"
     pagecolor="#000000"
     bordercolor="#666666"
     borderopacity="1.0"
     inkscape:pageopacity="0"
     inkscape:pageshadow="2"
     inkscape:zoom="0.15664336"
     inkscape:cx="91.909767"
     inkscape:cy="106.1748"
     inkscape:document-units="px"
     inkscape:current-layer="layer1"
     showgrid="false"
     fit-margin-top="0"
     fit-margin-left="0"
     fit-margin-right="0"
     fit-margin-bottom="0"
     inkscape:window-width="708"
     inkscape:window-height="483"
     inkscape:window-x="218"
     inkscape:window-y="203"
     inkscape:window-maximized="0" />
  <metadata
     id="metadata3015">
    <rdf:RDF>
      <cc:Work
         rdf:about="">
        <dc:format>image/svg+xml</dc:format>
        <dc:type
           rdf:resource="http://purl.org/dc/dcmitype/StillImage" />
        <dc:title></dc:title>
      </cc:Work>
    </rdf:RDF>
  </metadata>
  <g
     inkscape:label="Layer 1"
     inkscape:groupmode="layer"
     id="layer1"
     transform="translate(34.790609,-94.219123)">
    <path
       inkscape:connector-curvature="0"
       id="path15"
       d="m 5.1719864,599.19718 c 0,0 -86.1439974,219.816 210.9050036,234.669 v 65.351 H 34.876986 l -2.971,71.292 H 510.15499 v -71.292 h -77.233 l -2.97,-86.144 c 0,0 118.82,-3.446 118.82,-133.672 0,0 166.348,35.646 169.318,-109.908 0,0 68.321,23.323 62.38,-71.512 l 32.675,-371.091 c 0,0 -5.941,-32.674997 -38.616,-32.674997 h -136.642 c 0,0 -29.705,0 -29.705,38.615997 v 399.531 c 0,0 14.852,34.161 38.616,37.131 0,0 17.823,50.498 -98.026,47.528 v -17.823 H 5.1719864 z m 543.6000036,-50.023 c 0,11.221 -9.097,20.318 -20.318,20.318 H 25.489986 c -11.221,0 -20.3179996,-9.097 -20.3179996,-20.318 v -12.833 c 0,-11.221 9.0969996,-20.318 20.3179996,-20.318 H 528.45399 c 11.221,0 20.318,9.097 20.318,20.318 v 12.833 z"
       style="fill:#ffffff;fill-opacity:1" />
  </g>
</svg>
